<svg width="59" height="59" viewBox="0 0 59 59" fill="none" xmlns="http://www.w3.org/2000/svg">
<path d="M45.3888 58.9357H13.6112C6.09209 58.9357 0 52.8162 0 45.2971V24.9627C0 21.2305 2.30512 16.5379 5.26884 14.2328L20.06 2.70723C24.5056 -0.750432 31.613 -0.915083 36.2233 2.32305L53.1823 14.2054C56.4479 16.483 59 21.3677 59 25.3468V45.3245C59 52.8162 52.9079 58.9357 45.3888 58.9357ZM22.5847 5.94537L7.79349 17.471C5.84512 19.0077 4.11628 22.4928 4.11628 24.9627V45.2971C4.11628 50.5385 8.36977 54.8194 13.6112 54.8194H45.3888C50.6302 54.8194 54.8837 50.5659 54.8837 45.3245V25.3468C54.8837 22.7123 52.9902 19.0626 50.8223 17.5807L33.8633 5.69839C30.7349 3.50305 25.5758 3.61281 22.5847 5.94537Z" fill="white"/>
<path d="M29.5005 47.959C28.3754 47.959 27.4424 47.026 27.4424 45.9009V37.6683C27.4424 36.5432 28.3754 35.6102 29.5005 35.6102C30.6256 35.6102 31.5587 36.5432 31.5587 37.6683V45.9009C31.5587 47.026 30.6256 47.959 29.5005 47.959Z" fill="white"/>
</svg>
