<svg width="23" height="22" viewBox="0 0 23 22" fill="none" xmlns="http://www.w3.org/2000/svg">
<path d="M2.16992 6.43994L10.9999 11.5499L19.7699 6.46994M10.9999 20.6099V11.5399" stroke="white" stroke-width="1.5" stroke-linecap="round" stroke-linejoin="round"/>
<path d="M20.6096 11.83V8.17C20.6096 6.79 19.6196 5.11 18.4096 4.44L13.0696 1.48C11.9296 0.84 10.0696 0.84 8.92965 1.48L3.58965 4.44C2.37965 5.11 1.38965 6.79 1.38965 8.17V13.83C1.38965 15.21 2.37965 16.89 3.58965 17.56L8.92965 20.52C9.49965 20.84 10.2496 21 10.9996 21C11.7496 21 12.4996 20.84 13.0696 20.52" stroke="white" stroke-width="1.5" stroke-linecap="round" stroke-linejoin="round"/>
<path d="M22 21L21 20M18.2 20.4C19.0487 20.4 19.8626 20.0629 20.4627 19.4627C21.0629 18.8626 21.4 18.0487 21.4 17.2C21.4 16.3513 21.0629 15.5374 20.4627 14.9373C19.8626 14.3371 19.0487 14 18.2 14C17.3513 14 16.5374 14.3371 15.9373 14.9373C15.3371 15.5374 15 16.3513 15 17.2C15 18.0487 15.3371 18.8626 15.9373 19.4627C16.5374 20.0629 17.3513 20.4 18.2 20.4Z" stroke="#FF5722" stroke-width="1.5" stroke-linecap="round" stroke-linejoin="round"/>
</svg>
