<svg width="1000" height="1000" viewBox="0 0 1000 1000" fill="none" xmlns="http://www.w3.org/2000/svg">
<g clip-path="url(#clip0_15_2)">
<path d="M113.034 36.5729C95.5226 38.582 85.8612 42.8873 81.0305 51.2107C78.6152 55.5159 77.7094 159.415 78.0114 418.303V779.655L87.3708 806.347C115.751 886.998 177.946 938.374 271.239 958.465C299.619 964.492 306.261 964.492 597.311 965.64C760.648 966.501 897.417 966.214 901.342 965.353L908.588 963.631V157.119H561.684C339.774 157.119 209.044 155.971 198.779 154.249C173.719 149.657 146.245 135.306 125.413 115.789C93.7111 85.6525 87.9747 60.9692 111.524 56.377C117.261 55.2289 267.616 54.0808 445.144 54.0808C622.974 54.0808 777.556 53.7938 789.331 53.7938H810.465L801.105 44.8964L791.746 36.2859L459.938 35.7119C277.579 35.4249 121.488 35.7119 113.034 36.5729ZM436.992 379.556C496.47 393.045 537.229 432.654 550.513 490.631C553.231 502.398 557.457 500.389 559.571 486.038C562.59 467.669 577.686 440.977 594.895 422.895C653.769 361.761 750.987 359.465 811.974 418.016C842.468 447.004 855.149 476.854 854.847 518.758C854.847 587.929 808.955 642.461 737.703 658.247C706.001 665.136 668.563 660.256 636.862 645.045C629.918 641.6 623.879 639.304 623.276 639.878C616.03 648.489 557.156 709.91 555.646 710.484C554.438 710.771 541.154 697.855 526.058 681.782C485.299 638.156 484.997 637.869 476.241 643.322C472.317 645.906 461.447 650.211 452.088 653.368C396.837 671.45 340.076 659.108 298.412 619.5C275.466 597.687 265.201 580.466 258.257 551.191C249.501 513.879 252.822 485.177 270.333 452.171C300.525 395.342 370.57 364.631 436.992 379.556ZM451.484 744.639C463.561 750.092 486.507 762.721 502.81 772.766C529.983 789.413 533.002 790.561 538.437 786.83C546.286 781.664 564.1 781.664 571.346 786.83C576.478 790.561 579.799 789.126 604.557 773.914C638.07 753.249 677.319 734.306 689.698 733.445C698.151 732.584 698.755 733.158 700.869 746.074C702.378 753.536 702.982 787.117 702.68 820.698L701.774 881.832L690 881.258C676.413 880.397 644.712 864.611 604.859 838.78C577.686 821.272 577.384 821.272 570.44 826.438C561.684 833.039 548.702 833.039 540.248 826.438C533.304 820.985 533.002 821.272 504.32 839.641C470.505 861.167 423.708 883.841 414.952 882.693C409.216 881.832 408.914 879.249 408.008 808.93C407.404 752.675 408.31 735.454 411.027 733.732C416.462 730.575 426.727 733.158 451.484 744.639Z" fill="white"/>
<path d="M229.272 311.39H881.416V907.663H229.272V311.39Z" fill="white"/>
<path d="M135.299 81.5899C134.091 85.401 133.789 89.2122 134.695 91.1178C136.506 94.929 780.196 94.929 782.007 91.1178C789.253 75.8731 764.194 74.6027 458.351 74.6027C234.026 74.6027 136.506 76.5083 135.299 81.5899Z" fill="white"/>
<path d="M205.043 114.532C204.138 117.205 204.138 122.017 205.043 125.224C206.251 128.967 317.357 130.571 528.096 130.571C845.714 130.571 863.225 129.501 849.337 113.997C843.298 107.047 207.459 107.582 205.043 114.532Z" fill="white"/>
<path d="M716.115 156.402H851.979V380.273H716.115V156.402Z" fill="#FF5722"/>
<path d="M784.047 341.526L852.683 380.273H715.411L784.047 341.526Z" fill="white"/>
</g>
<defs>
<clipPath id="clip0_15_2">
<rect width="1000" height="1000" fill="white"/>
</clipPath>
</defs>
</svg>
