<svg width="149" height="149" viewBox="0 0 149 149" fill="none" xmlns="http://www.w3.org/2000/svg">
<path d="M57.9595 102.3L68.3845 112.725L90.972 91.875" stroke="#75FF45" stroke-width="9.19891" stroke-linecap="round" stroke-linejoin="round"/>
<path d="M52.3289 5L27.1699 30.2285" stroke="#75FF45" stroke-width="9.19891" stroke-miterlimit="10" stroke-linecap="round" stroke-linejoin="round"/>
<path d="M96.6699 5L121.829 30.2285" stroke="#75FF45" stroke-width="9.19891" stroke-miterlimit="10" stroke-linecap="round" stroke-linejoin="round"/>
<path d="M5 45.6573C5 32.7998 11.8805 31.7573 20.429 31.7573H128.571C137.12 31.7573 144 32.7998 144 45.6573C144 60.5998 137.12 59.5573 128.571 59.5573H20.429C11.8805 59.5573 5 60.5998 5 45.6573Z" stroke="#75FF45" stroke-width="9.19891"/>
<path d="M15.4248 60.6L25.2243 120.648C27.4483 134.131 32.7998 144 52.6768 144H94.5853C116.2 144 119.397 134.548 121.899 121.482L133.575 60.6" stroke="#75FF45" stroke-width="9.19891" stroke-linecap="round"/>
</svg>
