<svg width="25" height="28" viewBox="0 0 25 28" fill="none" xmlns="http://www.w3.org/2000/svg">
<path d="M12.4996 15.8853C11.9788 15.8853 11.5469 15.4534 11.5469 14.9325V8.26335C11.5469 7.74252 11.9788 7.31061 12.4996 7.31061C13.0204 7.31061 13.4524 7.74252 13.4524 8.26335V14.9325C13.4524 15.4534 13.0204 15.8853 12.4996 15.8853Z" fill="#FF5722"/>
<path d="M12.4998 20.3314C12.1568 20.3314 11.8392 20.2044 11.5979 19.963C11.4836 19.836 11.3946 19.6962 11.3184 19.5438C11.2549 19.3914 11.2295 19.2262 11.2295 19.0611C11.2295 18.7308 11.3692 18.4005 11.5979 18.1592C12.0679 17.6891 12.9317 17.6891 13.4017 18.1592C13.6304 18.4005 13.7701 18.7308 13.7701 19.0611C13.7701 19.2262 13.732 19.3914 13.6685 19.5438C13.605 19.6962 13.5161 19.836 13.4017 19.963C13.1604 20.2044 12.8428 20.3314 12.4998 20.3314Z" fill="#FF5722"/>
<path d="M12.5 27.3183C11.6489 27.3183 10.7851 27.1023 10.0229 26.6577L2.47714 22.3005C0.952754 21.4113 0 19.7725 0 18.0068V9.3178C0 7.55205 0.952754 5.91334 2.47714 5.02411L10.0229 0.666919C11.5473 -0.222306 13.4401 -0.222306 14.9772 0.666919L22.5229 5.02411C24.0473 5.91334 25 7.55205 25 9.3178V18.0068C25 19.7725 24.0473 21.4113 22.5229 22.3005L14.9772 26.6577C14.215 27.1023 13.3511 27.3183 12.5 27.3183ZM12.5 1.91181C11.9792 1.91181 11.4457 2.05155 10.9756 2.31831L3.42988 6.67552C2.48984 7.22176 1.90548 8.22533 1.90548 9.3178V18.0068C1.90548 19.0866 2.48984 20.1028 3.42988 20.6491L10.9756 25.0063C11.9157 25.5525 13.0844 25.5525 14.0117 25.0063L21.5574 20.6491C22.4975 20.1028 23.0818 19.0993 23.0818 18.0068V9.3178C23.0818 8.23803 22.4975 7.22176 21.5574 6.67552L14.0117 2.31831C13.5544 2.05155 13.0209 1.91181 12.5 1.91181Z" fill="#FF5722"/>
</svg>
