<svg width="48" height="46" viewBox="0 0 48 46" fill="none" xmlns="http://www.w3.org/2000/svg">
<path d="M22.7619 45.6597C20.8986 45.6597 19.0354 45.2574 17.5956 44.4317L6.28905 38.1644C3.21891 36.4705 0.805176 32.384 0.805176 28.8693V16.8852C0.805176 13.3704 3.21891 9.30518 6.28905 7.59015L17.5956 1.3228C20.4752 -0.30755 25.0063 -0.30755 27.907 1.3228L39.2136 7.59015C42.2837 9.28401 44.6975 13.3704 44.6975 16.8852V28.8693C44.6975 29.081 44.6975 29.2504 44.6551 29.4621C44.5493 30.0126 44.147 30.4784 43.6176 30.6478C43.0883 30.8384 42.4954 30.7113 42.0508 30.3514C39.6159 28.2341 35.847 28.1494 33.285 30.2032C31.6547 31.4948 30.7019 33.4639 30.7019 35.56C30.7019 36.8093 31.0407 38.0373 31.697 39.096C31.8664 39.3924 32.0358 39.6253 32.2264 39.8582C32.544 40.2182 32.671 40.7052 32.5863 41.171C32.5016 41.6368 32.2052 42.0391 31.7817 42.272L27.907 44.4105C26.4672 45.2574 24.6252 45.6597 22.7619 45.6597ZM22.7619 3.31309C21.4492 3.31309 20.1152 3.58836 19.1624 4.1177L7.85589 10.385C5.80208 11.5072 4.0235 14.5561 4.0235 16.8852V28.8693C4.0235 31.1983 5.82325 34.2473 7.85589 35.3695L19.1624 41.6368C21.0892 42.7166 24.4558 42.7166 26.3825 41.6368L28.754 40.324C27.9705 38.9054 27.5471 37.2539 27.5471 35.56C27.5471 32.4687 28.9233 29.6103 31.3159 27.7047C34.1955 25.3968 38.3243 24.9098 41.5426 26.2861V16.8429C41.5426 14.5138 39.7429 11.4648 37.7103 10.3427L26.4037 4.07531C25.4086 3.58832 24.0746 3.31309 22.7619 3.31309Z" fill="white"/>
<path d="M37.5858 45.6599C34.6216 45.6599 31.8479 44.3683 29.9423 42.1028C29.9211 42.0605 29.794 41.9546 29.6882 41.7852C29.4553 41.5523 29.18 41.1288 28.9471 40.7265C28.0155 39.2232 27.5073 37.4447 27.5073 35.5814C27.5073 32.4901 28.8836 29.6317 31.2762 27.7261C33.0547 26.3075 35.2991 25.5241 37.5647 25.5241C40.0208 25.5241 42.2863 26.371 44.1072 27.959C44.3613 28.1284 44.6577 28.446 44.933 28.7424C46.648 30.6269 47.6008 33.0406 47.6008 35.5602C47.6008 37.4023 47.0927 39.2021 46.1399 40.7477C45.6317 41.637 44.933 42.4416 44.1284 43.1191C42.4134 44.7706 40.0631 45.6599 37.5858 45.6599ZM37.5858 28.7213C36.019 28.7213 34.5369 29.2506 33.2876 30.2457C31.6573 31.5373 30.7045 33.5064 30.7045 35.6026C30.7045 36.8518 31.0433 38.0799 31.6996 39.1385C31.869 39.435 32.0384 39.6679 32.229 39.9008C32.2713 39.9431 32.3984 40.0702 32.5042 40.2396C33.6688 41.6158 35.5744 42.5051 37.5858 42.5051C39.2585 42.5051 40.8677 41.8911 42.0957 40.7901C42.6463 40.3242 43.1121 39.7737 43.4508 39.1809C44.1284 38.101 44.4672 36.873 44.4672 35.6238C44.4672 33.9087 43.8108 32.236 42.6251 30.9445C42.4769 30.7751 42.3075 30.6057 42.1381 30.4786C40.8042 29.2929 39.2585 28.7213 37.5858 28.7213Z" fill="#75FF45"/>
<path d="M40.7401 37.1482H34.4093C33.5412 37.1482 32.8213 36.4283 32.8213 35.5602C32.8213 34.6921 33.5412 33.9722 34.4093 33.9722H40.7401C41.6082 33.9722 42.3281 34.6921 42.3281 35.5602C42.3281 36.4283 41.6294 37.1482 40.7401 37.1482Z" fill="#75FF45"/>
<path d="M37.5853 40.3878C36.7172 40.3878 35.9973 39.6679 35.9973 38.7998V32.469C35.9973 31.6008 36.7172 30.881 37.5853 30.881C38.4534 30.881 39.1733 31.6008 39.1733 32.469V38.7998C39.1733 39.6891 38.4534 40.3878 37.5853 40.3878Z" fill="#75FF45"/>
<path d="M22.7624 25.6509C22.4872 25.6509 22.2119 25.5874 21.9579 25.4392L3.26189 14.6196C2.49965 14.175 2.24559 13.2009 2.69023 12.4387C3.13487 11.6764 4.10882 11.4223 4.84989 11.867L22.7415 22.2208L40.5269 11.9305C41.2891 11.4859 42.2633 11.7612 42.6868 12.5023C43.1314 13.2645 42.8559 14.2384 42.1149 14.6831L23.5459 25.4392C23.313 25.5662 23.0377 25.6509 22.7624 25.6509Z" fill="white"/>
<path d="M22.7639 44.8337C21.8958 44.8337 21.1759 44.1138 21.1759 43.2457V24.0415C21.1759 23.1734 21.8958 22.4535 22.7639 22.4535C23.632 22.4535 24.3519 23.1734 24.3519 24.0415V43.2457C24.3519 44.1138 23.632 44.8337 22.7639 44.8337Z" fill="white"/>
</svg>
