<svg width="58" height="60" viewBox="0 0 58 60" fill="none" xmlns="http://www.w3.org/2000/svg">
<path d="M4.02759 17.504L26.9797 31.5564L49.776 17.5864" stroke="white" stroke-width="4" stroke-linecap="round" stroke-linejoin="round"/>
<path d="M26.9799 56.4713V31.5288" stroke="white" stroke-width="4" stroke-linecap="round" stroke-linejoin="round"/>
<path d="M51.9594 32.3266V22.2616C51.9594 18.4666 49.3861 13.8467 46.2409 12.0042L32.3603 3.86413C29.3971 2.10413 24.5623 2.10413 21.599 3.86413L7.71854 12.0042C4.57333 13.8467 2 18.4666 2 22.2616V37.8266C2 41.6216 4.57333 46.2416 7.71854 48.0841L21.599 56.2241C23.0807 57.1041 25.0302 57.5441 26.9797 57.5441C28.9292 57.5441 30.8787 57.1041 32.3603 56.2241" stroke="white" stroke-width="4" stroke-linecap="round" stroke-linejoin="round"/>
<path d="M45.695 55.8941C50.2888 55.8941 54.0129 51.9542 54.0129 47.0941C54.0129 42.2341 50.2888 38.2941 45.695 38.2941C41.1012 38.2941 37.3771 42.2341 37.3771 47.0941C37.3771 51.9542 41.1012 55.8941 45.695 55.8941Z" stroke="#FF5722" stroke-width="4" stroke-linecap="round" stroke-linejoin="round"/>
<path d="M55.5725 57.5441L52.9731 54.7941" stroke="#FF5722" stroke-width="4" stroke-linecap="round" stroke-linejoin="round"/>
</svg>
