<svg width="71" height="70" viewBox="0 0 71 70" fill="none" xmlns="http://www.w3.org/2000/svg">
<rect width="71" height="70" fill="#272B2F"/>
<path d="M6.39648 20.7072L33.515 36.4009L60.4494 20.7992" stroke="#FF5722" stroke-width="4.6068" stroke-linecap="round" stroke-linejoin="round"/>
<path d="M33.5156 64.2259V36.3701" stroke="#FF5722" stroke-width="4.6068" stroke-linecap="round" stroke-linejoin="round"/>
<path d="M63.0284 37.2611V26.0205C63.0284 21.7822 59.9879 16.6227 56.2718 14.565L39.8716 5.47418C36.3704 3.50861 30.658 3.50861 27.1568 5.47418L10.7566 14.565C7.04046 16.6227 4 21.7822 4 26.0205V43.4035C4 47.6417 7.04046 52.8013 10.7566 54.859L27.1568 63.9498C28.9074 64.9326 31.2108 65.424 33.5142 65.424C35.8176 65.424 38.121 64.9326 39.8716 63.9498" stroke="#FF5722" stroke-width="4.6068" stroke-linecap="round" stroke-linejoin="round"/>
<path d="M55.6276 63.5812C61.0554 63.5812 65.4555 59.1811 65.4555 53.7534C65.4555 48.3256 61.0554 43.9255 55.6276 43.9255C50.1999 43.9255 45.7998 48.3256 45.7998 53.7534C45.7998 59.1811 50.1999 63.5812 55.6276 63.5812Z" stroke="#FF5722" stroke-width="4.6068" stroke-linecap="round" stroke-linejoin="round"/>
<path d="M67.2987 65.424L64.2275 62.3528" stroke="#FF5722" stroke-width="4.6068" stroke-linecap="round" stroke-linejoin="round"/>
</svg>
