<svg width="114" height="142" viewBox="0 0 114 142" fill="none" xmlns="http://www.w3.org/2000/svg">
<path d="M81.6 99H70.4C69.6268 99 69 99.6268 69 100.4V111.6C69 112.373 69.6268 113 70.4 113H81.6C82.3732 113 83 112.373 83 111.6V100.4C83 99.6268 82.3732 99 81.6 99Z" fill="#FF5722"/>
<path d="M67.75 89H60.25C59.5596 89 59 89.5596 59 90.25V97.75C59 98.4404 59.5596 99 60.25 99H67.75C68.4404 99 69 98.4404 69 97.75V90.25C69 89.5596 68.4404 89 67.75 89Z" fill="#FF5722"/>
<path d="M91.75 113H84.25C83.5596 113 83 113.56 83 114.25V121.75C83 122.44 83.5596 123 84.25 123H91.75C92.4404 123 93 122.44 93 121.75V114.25C93 113.56 92.4404 113 91.75 113Z" fill="#FF5722"/>
<path d="M91.3333 89H84.6667C83.7462 89 83 89.597 83 90.3333V95.6667C83 96.403 83.7462 97 84.6667 97H91.3333C92.2538 97 93 96.403 93 95.6667V90.3333C93 89.597 92.2538 89 91.3333 89Z" fill="#FF5722"/>
<path d="M66.5 115H60.5C59.6716 115 59 115.597 59 116.333V121.667C59 122.403 59.6716 123 60.5 123H66.5C67.3284 123 68 122.403 68 121.667V116.333C68 115.597 67.3284 115 66.5 115Z" fill="#FF5722"/>
<path d="M81.6 60H70.4C69.6268 60 69 60.6268 69 61.4V72.6C69 73.3732 69.6268 74 70.4 74H81.6C82.3732 74 83 73.3732 83 72.6V61.4C83 60.6268 82.3732 60 81.6 60Z" fill="#FF5722"/>
<path d="M88.2727 53H63.7273C62.221 53 61 54.1803 61 55.6364V79.3636C61 80.8197 62.221 82 63.7273 82H88.2727C89.779 82 91 80.8197 91 79.3636V55.6364C91 54.1803 89.779 53 88.2727 53Z" stroke="#FF5722" stroke-width="4" stroke-linecap="round" stroke-linejoin="round"/>
<path d="M41.7 60H31.3C30.582 60 30 60.6268 30 61.4V72.6C30 73.3732 30.582 74 31.3 74H41.7C42.418 74 43 73.3732 43 72.6V61.4C43 60.6268 42.418 60 41.7 60Z" fill="#FF5722"/>
<path d="M49.3636 53H25.6364C24.1803 53 23 54.1803 23 55.6364V79.3636C23 80.8197 24.1803 82 25.6364 82H49.3636C50.8197 82 52 80.8197 52 79.3636V55.6364C52 54.1803 50.8197 53 49.3636 53Z" stroke="#FF5722" stroke-width="4" stroke-linecap="round" stroke-linejoin="round"/>
<path d="M41.7 99H31.3C30.582 99 30 99.6268 30 100.4V111.6C30 112.373 30.582 113 31.3 113H41.7C42.418 113 43 112.373 43 111.6V100.4C43 99.6268 42.418 99 41.7 99Z" fill="#FF5722"/>
<path d="M49.3636 91H25.6364C24.1803 91 23 92.221 23 93.7273V118.273C23 119.779 24.1803 121 25.6364 121H49.3636C50.8197 121 52 119.779 52 118.273V93.7273C52 92.221 50.8197 91 49.3636 91Z" stroke="#FF5722" stroke-width="4" stroke-linecap="round" stroke-linejoin="round"/>
<path d="M84 35H97.5C101.08 35 104.514 36.5218 107.046 39.2307C109.578 41.9395 111 45.6135 111 49.4444V124.556C111 128.386 109.578 132.06 107.046 134.769C104.514 137.478 101.08 139 97.5 139H16.5C12.9196 139 9.4858 137.478 6.95406 134.769C4.42232 132.06 3 128.386 3 124.556V49.4444C3 45.6135 4.42232 41.9395 6.95406 39.2307C9.4858 36.5218 12.9196 35 16.5 35H30" stroke="white" stroke-width="6" stroke-linecap="round" stroke-linejoin="round"/>
<path d="M48 32.4737L58 43L68 32.4737M58 3V40.8947" stroke="white" stroke-width="6" stroke-linecap="round" stroke-linejoin="round"/>
</svg>
