<svg width="475" height="541" viewBox="0 0 475 541" fill="none" xmlns="http://www.w3.org/2000/svg">
<path d="M296.107 448.031C296.107 463.343 286.063 483.425 273.261 491.206L237.87 514.049C204.987 534.381 159.301 511.539 159.301 470.874V336.579C159.301 318.756 149.26 295.914 138.968 283.363L42.5763 181.952C29.7743 169.15 19.7344 146.558 19.7344 131.246V73.0096C19.7344 42.6364 42.5775 19.7939 70.4406 19.7939H405.297C433.16 19.7939 456.005 42.6364 456.005 70.4994V126.225C456.005 146.558 443.203 171.911 430.652 184.462" stroke="white" stroke-width="37.6527" stroke-miterlimit="10" stroke-linecap="round" stroke-linejoin="round"/>
<path d="M340.023 384.024C384.386 384.024 420.349 348.061 420.349 303.698C420.349 259.336 384.386 223.372 340.023 223.372C295.661 223.372 259.697 259.336 259.697 303.698C259.697 348.061 295.661 384.024 340.023 384.024Z" stroke="white" stroke-width="37.6527" stroke-linecap="round" stroke-linejoin="round"/>
<path d="M435.409 399.085L410.308 373.983" stroke="white" stroke-width="37.6527" stroke-linecap="round" stroke-linejoin="round"/>
</svg>
