<svg width="56" height="53" viewBox="0 0 56 53" fill="none" xmlns="http://www.w3.org/2000/svg">
<path d="M27.9537 36.2436C22.571 36.2436 18.2024 31.875 18.2024 26.4923C18.2024 21.1096 22.571 16.741 27.9537 16.741C33.3364 16.741 37.705 21.1096 37.705 26.4923C37.705 31.875 33.3364 36.2436 27.9537 36.2436ZM27.9537 20.6415C24.7293 20.6415 22.1029 23.2678 22.1029 26.4923C22.1029 29.7167 24.7293 32.3431 27.9537 32.3431C31.1781 32.3431 33.8045 29.7167 33.8045 26.4923C33.8045 23.2678 31.1781 20.6415 27.9537 20.6415Z" fill="white"/>
<path d="M36.3009 52.9894C35.7548 52.9894 35.2088 52.9114 34.6627 52.7814C33.0505 52.3393 31.6983 51.3252 30.8402 49.895L30.5281 49.3749C28.9939 46.7226 26.8876 46.7226 25.3534 49.3749L25.0674 49.869C24.2093 51.3252 22.8571 52.3653 21.2449 52.7814C19.6066 53.2234 17.9164 52.9894 16.4862 52.1313L12.0136 49.5569C10.4274 48.6468 9.28325 47.1646 8.78919 45.3704C8.32112 43.5761 8.55515 41.7299 9.46528 40.1437C10.2194 38.8175 10.4274 37.6213 9.98535 36.8672C9.54329 36.1131 8.42514 35.6711 6.89093 35.6711C3.09442 35.6711 0 32.5766 0 28.7801V24.2035C0 20.407 3.09442 17.3126 6.89093 17.3126C8.42514 17.3126 9.54329 16.8705 9.98535 16.1164C10.4274 15.3623 10.2454 14.1662 9.46528 12.84C8.55515 11.2538 8.32112 9.38151 8.78919 7.61327C9.25725 5.81903 10.4014 4.33683 12.0136 3.42671L16.5122 0.85236C19.4506 -0.889875 23.3251 0.124261 25.0934 3.11466L25.4054 3.63474C26.9396 6.28709 29.0459 6.28709 30.5801 3.63474L30.8662 3.14067C32.6344 0.124261 36.5089 -0.889875 39.4733 0.878363L43.9459 3.45271C45.5321 4.36283 46.6763 5.84503 47.1704 7.63928C47.6384 9.43352 47.4044 11.2798 46.4943 12.866C45.7402 14.1922 45.5321 15.3883 45.9742 16.1424C46.4163 16.8965 47.5344 17.3386 49.0686 17.3386C52.8651 17.3386 55.9596 20.433 55.9596 24.2295V28.8061C55.9596 32.6026 52.8651 35.6971 49.0686 35.6971C47.5344 35.6971 46.4163 36.1391 45.9742 36.8932C45.5321 37.6473 45.7142 38.8435 46.4943 40.1697C47.4044 41.7559 47.6644 43.6281 47.1704 45.3964C46.7023 47.1906 45.5581 48.6728 43.9459 49.5829L39.4473 52.1573C38.4592 52.7034 37.393 52.9894 36.3009 52.9894ZM27.9538 43.3681C30.2681 43.3681 32.4264 44.8243 33.9086 47.3986L34.1946 47.8927C34.5067 48.4388 35.0267 48.8288 35.6508 48.9849C36.2749 49.1409 36.899 49.0629 37.419 48.7508L41.9177 46.1505C42.5937 45.7604 43.1138 45.1103 43.3218 44.3302C43.5299 43.5501 43.4259 42.744 43.0358 42.0679C41.5536 39.5196 41.3716 36.8932 42.5157 34.891C43.6599 32.8887 46.0262 31.7445 48.9906 31.7445C50.6548 31.7445 51.981 30.4183 51.981 28.7541V24.1775C51.981 22.5393 50.6548 21.1871 48.9906 21.1871C46.0262 21.1871 43.6599 20.0429 42.5157 18.0407C41.3716 16.0384 41.5536 13.4121 43.0358 10.8637C43.4259 10.1876 43.5299 9.38151 43.3218 8.60141C43.1138 7.8213 42.6197 7.19722 41.9437 6.78116L37.4451 4.20681C36.3269 3.53072 34.8447 3.92077 34.1686 5.06493L33.8826 5.55899C32.4004 8.13334 30.2421 9.58954 27.9278 9.58954C25.6135 9.58954 23.4552 8.13334 21.973 5.55899L21.6869 5.03892C21.0368 3.94678 19.5806 3.55672 18.4625 4.20681L13.9639 6.80716C13.2878 7.19722 12.7677 7.8473 12.5597 8.62741C12.3517 9.40751 12.4557 10.2136 12.8457 10.8897C14.3279 13.4381 14.51 16.0644 13.3658 18.0667C12.2216 20.069 9.85533 21.2131 6.89093 21.2131C5.22671 21.2131 3.90053 22.5393 3.90053 24.2035V28.7801C3.90053 30.4183 5.22671 31.7705 6.89093 31.7705C9.85533 31.7705 12.2216 32.9147 13.3658 34.917C14.51 36.9192 14.3279 39.5456 12.8457 42.0939C12.4557 42.77 12.3517 43.5761 12.5597 44.3562C12.7677 45.1363 13.2618 45.7604 13.9379 46.1765L18.4365 48.7508C18.9826 49.0889 19.6326 49.1669 20.2307 49.0109C20.8548 48.8548 21.3749 48.4388 21.7129 47.8927L21.999 47.3986C23.4812 44.8503 25.6395 43.3681 27.9538 43.3681Z" fill="white"/>
</svg>
