<svg width="146" height="144" viewBox="0 0 146 144" fill="none" xmlns="http://www.w3.org/2000/svg">
<path d="M82.3072 112.92C81.0345 112.92 79.7618 112.451 78.757 111.446L60.2694 92.9582C58.3269 91.0156 58.3269 87.8004 60.2694 85.8578C62.2119 83.9153 65.4272 83.9153 67.3697 85.8578L85.8574 104.346C87.7999 106.288 87.7999 109.503 85.8574 111.446C84.9196 112.451 83.6469 112.92 82.3072 112.92Z" fill="#FF5722"/>
<path d="M63.6883 113.121C62.4156 113.121 61.1429 112.652 60.1382 111.647C58.1955 109.705 58.1955 106.489 60.1382 104.547L78.6258 86.059C80.5684 84.1165 83.7836 84.1165 85.7262 86.059C87.6687 88.0016 87.6687 91.2168 85.7262 93.1594L67.2385 111.647C66.2337 112.652 64.961 113.121 63.6883 113.121Z" fill="#FF5722"/>
<path d="M27.3835 34.3462C26.1108 34.3462 24.7712 33.8104 23.8334 32.8726C21.8908 30.93 21.8908 27.7148 23.8334 25.7722L48.1487 1.45692C50.0912 -0.485621 53.3065 -0.485621 55.249 1.45692C57.1916 3.39947 57.1916 6.61472 55.249 8.55726L30.9337 32.8726C29.9289 33.8104 28.6562 34.3462 27.3835 34.3462Z" fill="#FF5722"/>
<path d="M118.605 34.3462C117.332 34.3462 116.059 33.8773 115.054 32.8726L90.7391 8.55726C88.7966 6.61472 88.7966 3.39947 90.7391 1.45692C92.6817 -0.485621 95.8969 -0.485621 97.8395 1.45692L122.155 25.7722C124.097 27.7148 124.097 30.93 122.155 32.8726C121.217 33.8104 119.877 34.3462 118.605 34.3462Z" fill="#FF5722"/>
<path d="M127.988 62.6147C127.519 62.6147 127.05 62.6147 126.581 62.6147H125.041H19.4065C14.7176 62.6817 9.35888 62.6817 5.47379 58.7966C2.39251 55.7823 0.98584 51.0934 0.98584 44.194C0.98584 25.7733 14.4497 25.7733 20.8802 25.7733H125.108C131.538 25.7733 145.002 25.7733 145.002 44.194C145.002 51.1604 143.596 55.7823 140.514 58.7966C137.031 62.2798 132.342 62.6147 127.988 62.6147ZM20.8802 52.567H126.648C129.663 52.634 132.476 52.634 133.414 51.6962C133.883 51.2274 134.888 49.6197 134.888 44.194C134.888 36.6248 133.012 35.821 125.041 35.821H20.8802C12.9091 35.821 11.0335 36.6248 11.0335 44.194C11.0335 49.6197 12.1052 51.2274 12.5071 51.6962C13.4449 52.567 16.3253 52.567 19.2726 52.567H20.8802Z" fill="#FF5722"/>
<path d="M92.3574 144H51.966C27.9856 144 22.6269 129.732 20.5504 117.34L11.1056 59.3988C10.6367 56.6524 12.5122 54.107 15.2586 53.6381C18.005 53.1692 20.5504 55.0448 21.0193 57.7912L30.464 115.666C32.4066 127.522 36.4257 133.952 51.966 133.952H92.3574C109.572 133.952 111.515 127.924 113.725 116.268L124.979 57.6572C125.515 54.9108 128.127 53.1023 130.873 53.7051C133.62 54.241 135.361 56.8534 134.825 59.5997L123.572 118.211C120.96 131.809 116.606 144 92.3574 144Z" fill="#FF5722"/>
</svg>
